<svg width="185" height="122" viewBox="0 0 185 122" fill="none" xmlns="http://www.w3.org/2000/svg">
<ellipse cx="93" cy="42" rx="45" ry="42" fill="#E71818"/>
<path d="M102.896 41.8496C105.803 43.209 107.256 45.1719 107.256 47.7383C107.256 50.0352 106.354 51.9395 104.549 53.4512C102.146 55.4668 98.8711 56.4746 94.7227 56.4746C91.6406 56.4746 88.7871 55.8887 86.1621 54.7168C83.5957 53.5684 81.6387 51.9688 80.291 49.918C79.3184 48.4297 78.832 47.2109 78.832 46.2617C78.832 45.8984 79.3008 45.5879 80.2383 45.3301C81.1875 46.666 82.875 47.8086 85.3008 48.7578C86.0391 47.7734 87.0352 46.373 88.2891 44.5566C89.543 42.7402 90.5215 41.3281 91.2246 40.3203C91.9277 39.3008 92.6309 38.3223 93.334 37.3848C94.8926 35.3105 96.2461 33.7402 97.3945 32.6738C97.7461 32.3223 98.2793 32.3105 98.9941 32.6387C99.1816 32.7207 99.334 32.8145 99.4512 32.9199C98.4785 33.9043 97.166 35.8613 95.5137 38.791C96.5918 39.0488 97.5352 39.1777 98.3438 39.1777C99.1523 39.1777 99.9551 39.0898 100.752 38.9141C101.549 38.7266 102.275 38.457 102.932 38.1055C104.443 37.3203 105.199 36.3535 105.199 35.2051C105.199 32.9668 103.494 31.4258 100.084 30.582C98.748 30.2422 97.4121 30.0723 96.0762 30.0723C94.752 30.0723 93.5039 30.166 92.332 30.3535C91.1602 30.5293 90.1172 30.8105 89.2031 31.1973C87.1875 32.0527 86.1797 33.2656 86.1797 34.8359C86.1797 36.1602 86.6719 37.2734 87.6562 38.1758C86.5898 39.3125 85.7402 39.8809 85.1074 39.8809C84.3809 39.8809 83.7012 39.4883 83.0684 38.7031C82.4238 37.8945 82.1016 37.0098 82.1016 36.0488C82.1016 35.0879 82.3008 34.2441 82.6992 33.5176C83.1094 32.791 83.6602 32.1465 84.3516 31.584C85.043 31.0098 85.8398 30.5117 86.7422 30.0898C87.6562 29.668 88.623 29.3164 89.6426 29.0352C91.623 28.4844 93.4043 28.209 94.9863 28.209C96.5684 28.209 97.8867 28.2793 98.9414 28.4199C100.008 28.5488 101.021 28.7539 101.982 29.0352C102.943 29.3164 103.834 29.668 104.654 30.0898C105.475 30.5117 106.189 31.0098 106.799 31.584C108.076 32.8027 108.715 34.2617 108.715 35.9609C108.715 37.3203 108.146 38.5391 107.01 39.6172C105.99 40.6133 104.619 41.3574 102.896 41.8496ZM89.3613 49.9355C90.7324 50.2051 91.8398 50.3398 92.6836 50.3398C93.5273 50.3398 94.2422 50.3223 94.8281 50.2871C95.4141 50.2402 96.0469 50.123 96.7266 49.9355C97.418 49.748 98.0098 49.4844 98.502 49.1445C99.5801 48.418 100.119 47.4219 100.119 46.1562C100.119 44.9258 99.4922 43.918 98.2383 43.1328C97.0898 42.418 95.6074 42.0254 93.791 41.9551C93.4043 42.6816 93.0176 43.4082 92.6309 44.1348C92.2441 44.8613 91.8633 45.5703 91.4883 46.2617C90.6914 47.7148 89.9824 48.9395 89.3613 49.9355Z" fill="white"/>
<path d="M49.3516 103.125C49.3516 103.469 49.2734 103.828 49.1172 104.203C48.6953 105.203 47.9219 105.914 46.7969 106.336C47.4688 106.461 48.0625 106.672 48.5781 106.969C49.6875 107.656 50.2422 108.625 50.2422 109.875C50.2422 110.672 50 111.406 49.5156 112.078C48.5781 113.359 47.1016 114 45.0859 114H38.4297V113.391H40.3047V100.547H38.4297V99.9375H45.0156C46.0469 99.9375 46.9297 100.117 47.6641 100.477C48.7891 101.055 49.3516 101.938 49.3516 103.125ZM44.4531 100.547H42.3203V106.055H44.4062C45.0312 106.055 45.5781 105.906 46.0469 105.609C46.8438 105.094 47.2422 104.328 47.2422 103.312C47.2422 103.094 47.2266 102.883 47.1953 102.68C46.9766 101.258 46.0625 100.547 44.4531 100.547ZM44.8516 106.688H42.3203V113.391H44.9688C45.6875 113.391 46.3047 113.172 46.8203 112.734C47.6016 112.062 47.9922 111.125 47.9922 109.922C47.9922 109.406 47.8984 108.93 47.7109 108.492C47.2266 107.289 46.2734 106.688 44.8516 106.688ZM65.6641 114H60.6016V113.391H62.125L60.3672 108.844H55.4688L53.7109 113.391H54.8594C54.9375 113.391 55.0156 113.398 55.0938 113.414C55.3438 113.461 55.4688 113.656 55.4688 114H51.2969V113.391H52.7734L58.0234 99.9375H58.8906L64.2578 113.391H65.0547C65.1328 113.391 65.2109 113.398 65.2891 113.414C65.5391 113.461 65.6641 113.656 65.6641 114ZM60.1094 108.164L57.9062 102.492L55.7266 108.164H60.1094ZM72.3438 114H66.6016V113.391H68.4766V100.547H66.6016V99.9375H73.5391C74.7578 99.9375 75.7812 100.219 76.6094 100.781C77.625 101.484 78.1328 102.422 78.1328 103.594C78.1328 104.078 78.0312 104.555 77.8281 105.023C77.2812 106.211 76.2656 106.984 74.7812 107.344L78.5547 113.391H79.4453C79.5547 113.391 79.6484 113.398 79.7266 113.414C79.9141 113.461 80.0078 113.656 80.0078 114H76.4688L72.7188 107.555H70.4922V113.391H72.3438V114ZM72.8359 100.547H70.4922V106.875H72.9062C73.6094 106.875 74.2266 106.664 74.7578 106.242C75.5391 105.617 75.9297 104.742 75.9297 103.617C75.9297 103.117 75.8281 102.641 75.625 102.188C75.1094 101.094 74.1797 100.547 72.8359 100.547ZM85.5156 99.9375H92.0547C93.6484 99.9375 95.0469 100.312 96.25 101.062C98.2188 102.312 99.2031 104.281 99.2031 106.969C99.2031 109.047 98.5312 110.734 97.1875 112.031C95.8281 113.344 94.0938 114 91.9844 114H85.5156V113.391H87.3906V100.547H85.5156V99.9375ZM91.9844 100.547H89.4062V113.391H92.0547C92.3672 113.391 92.6719 113.367 92.9688 113.32C95.625 112.914 96.9531 110.766 96.9531 106.875C96.9531 105.734 96.8359 104.75 96.6016 103.922C95.9922 101.672 94.4531 100.547 91.9844 100.547ZM108.812 99.7031C110.406 99.7031 111.812 100.164 113.031 101.086C114.828 102.43 115.727 104.391 115.727 106.969C115.727 109.172 114.984 110.969 113.5 112.359C112.172 113.609 110.586 114.234 108.742 114.234C107.102 114.234 105.648 113.734 104.383 112.734C102.648 111.359 101.781 109.406 101.781 106.875C101.781 104.688 102.516 102.914 103.984 101.555C105.328 100.32 106.938 99.7031 108.812 99.7031ZM108.812 113.578C109.438 113.578 110.016 113.461 110.547 113.227C112.438 112.398 113.383 110.281 113.383 106.875C113.367 102.562 111.82 100.391 108.742 100.359C108.305 100.359 107.891 100.406 107.5 100.5C105.25 101.094 104.125 103.25 104.125 106.969C104.125 108.094 104.234 109.086 104.453 109.945C105.094 112.367 106.547 113.578 108.812 113.578ZM133.727 114H122.172V113.531L131.406 100.547H126.297C125.5 100.562 124.867 101.07 124.398 102.07L123.484 104.18H123.016L123.227 99.9375H133.656V100.43L124.68 113.391H130.469C131.672 113.375 132.438 112.711 132.766 111.398L133.258 109.148H133.773L133.727 114ZM146.336 104.156H145.867L145.539 103.055C145.523 102.992 145.5 102.914 145.469 102.82C144.984 101.305 144.18 100.547 143.055 100.547H139.305V106.406H144.133V107.086H139.305V113.391H143.055C143.32 113.391 143.57 113.352 143.805 113.273C144.57 113.008 145.148 112.211 145.539 110.883L145.867 109.781H146.336L146.219 114H135.414V113.391H137.289V100.547H135.414V99.9375H146.219L146.336 104.156ZM143.43 97.2891C143.258 97.4453 142.953 97.6641 142.516 97.9453C141.188 98.7734 140.336 99.3359 139.961 99.6328L139.586 99.2344C139.977 98.8125 140.398 98.25 140.852 97.5469C141.477 96.5625 141.852 96.0078 141.977 95.8828C142.18 95.6953 142.406 95.5938 142.656 95.5781C142.797 95.5781 142.945 95.6172 143.102 95.6953C143.523 95.9141 143.734 96.2266 143.734 96.6328C143.719 96.8516 143.617 97.0703 143.43 97.2891Z" fill="#E71818"/>
</svg>
