<svg width="221" height="212" viewBox="0 0 221 212" fill="none" xmlns="http://www.w3.org/2000/svg">
<ellipse cx="110.5" cy="106" rx="110.5" ry="106" fill="#E71818"/>
<path d="M137.391 105.266C145.141 108.891 149.016 114.125 149.016 120.969C149.016 127.094 146.609 132.172 141.797 136.203C135.391 141.578 126.656 144.266 115.594 144.266C107.375 144.266 99.7656 142.703 92.7656 139.578C85.9219 136.516 80.7031 132.25 77.1094 126.781C74.5156 122.812 73.2188 119.562 73.2188 117.031C73.2188 116.062 74.4688 115.234 76.9688 114.547C79.5 118.109 84 121.156 90.4688 123.688C92.4375 121.062 95.0938 117.328 98.4375 112.484C101.781 107.641 104.391 103.875 106.266 101.188C108.141 98.4688 110.016 95.8594 111.891 93.3594C116.047 87.8281 119.656 83.6406 122.719 80.7969C123.656 79.8594 125.078 79.8281 126.984 80.7031C127.484 80.9219 127.891 81.1719 128.203 81.4531C125.609 84.0781 122.109 89.2969 117.703 97.1094C120.578 97.7969 123.094 98.1406 125.25 98.1406C127.406 98.1406 129.547 97.9062 131.672 97.4375C133.797 96.9375 135.734 96.2188 137.484 95.2812C141.516 93.1875 143.531 90.6094 143.531 87.5469C143.531 81.5781 138.984 77.4688 129.891 75.2188C126.328 74.3125 122.766 73.8594 119.203 73.8594C115.672 73.8594 112.344 74.1094 109.219 74.6094C106.094 75.0781 103.312 75.8281 100.875 76.8594C95.5 79.1406 92.8125 82.375 92.8125 86.5625C92.8125 90.0938 94.125 93.0625 96.75 95.4688C93.9062 98.5 91.6406 100.016 89.9531 100.016C88.0156 100.016 86.2031 98.9688 84.5156 96.875C82.7969 94.7188 81.9375 92.3594 81.9375 89.7969C81.9375 87.2344 82.4688 84.9844 83.5312 83.0469C84.625 81.1094 86.0938 79.3906 87.9375 77.8906C89.7812 76.3594 91.9062 75.0312 94.3125 73.9062C96.75 72.7812 99.3281 71.8438 102.047 71.0938C107.328 69.625 112.078 68.8906 116.297 68.8906C120.516 68.8906 124.031 69.0781 126.844 69.4531C129.688 69.7969 132.391 70.3438 134.953 71.0938C137.516 71.8438 139.891 72.7812 142.078 73.9062C144.266 75.0312 146.172 76.3594 147.797 77.8906C151.203 81.1406 152.906 85.0312 152.906 89.5625C152.906 93.1875 151.391 96.4375 148.359 99.3125C145.641 101.969 141.984 103.953 137.391 105.266ZM101.297 126.828C104.953 127.547 107.906 127.906 110.156 127.906C112.406 127.906 114.312 127.859 115.875 127.766C117.438 127.641 119.125 127.328 120.938 126.828C122.781 126.328 124.359 125.625 125.672 124.719C128.547 122.781 129.984 120.125 129.984 116.75C129.984 113.469 128.312 110.781 124.969 108.688C121.906 106.781 117.953 105.734 113.109 105.547C112.078 107.484 111.047 109.422 110.016 111.359C108.984 113.297 107.969 115.188 106.969 117.031C104.844 120.906 102.953 124.172 101.297 126.828Z" fill="white"/>
</svg>
