<svg width="424" height="440" viewBox="0 0 424 440" fill="none" xmlns="http://www.w3.org/2000/svg">
<g clip-path="url(#clip0_560_60)">
<path d="M424 437.681H137.878V439.035H424V437.681Z" fill="#3F3D56"/>
<path d="M370.603 207.299C371.153 208.01 371.562 208.839 371.802 209.734C372.042 210.629 372.109 211.569 371.997 212.494C371.885 213.419 371.597 214.308 371.153 215.103C370.708 215.898 370.117 216.581 369.416 217.11L339.805 239.429L326.766 248.972C326.025 249.514 325.127 249.734 324.247 249.589C323.366 249.445 322.566 248.946 322.003 248.189C321.674 247.748 321.437 247.234 321.307 246.683C321.177 246.131 321.157 245.555 321.25 244.995C321.343 244.434 321.545 243.902 321.843 243.436C322.141 242.97 322.528 242.58 322.977 242.294L335.606 234.244L357.647 211.198L343.478 194.491L353.974 185.849L370.603 207.299Z" fill="#A0616A"/>
<path d="M300.97 417.452H293.727L289.425 351.773L307.792 351.197L300.97 417.452Z" fill="#A0616A"/>
<path d="M301.495 438.768C299.564 439.736 297.946 431.896 296.317 433.653C291.76 438.57 284.782 439.64 278.699 437.494L280.828 437.468C280.461 437.338 280.122 437.128 279.831 436.85C279.54 436.573 279.303 436.233 279.135 435.852C278.967 435.471 278.872 435.056 278.854 434.634C278.836 434.211 278.897 433.789 279.032 433.392C279.194 432.918 279.459 432.494 279.803 432.157C280.148 431.82 280.561 431.579 281.009 431.456L285.855 430.126L293.464 415.435L301.233 414.859C302.964 417.283 304.173 420.106 304.768 423.117C305.362 426.127 305.327 429.247 304.665 432.24C303.96 435.399 302.872 438.078 301.495 438.768Z" fill="#2F2E41"/>
<path d="M349.199 417.452H341.955L337.653 351.773L356.546 347.74L349.199 417.452Z" fill="#A0616A"/>
<path d="M349.724 438.768C347.792 439.736 346.174 431.896 344.545 433.653C339.988 438.569 333.01 439.64 326.928 437.494L329.057 437.467C328.689 437.338 328.35 437.128 328.059 436.85C327.768 436.573 327.532 436.233 327.364 435.852C327.196 435.471 327.1 435.056 327.083 434.634C327.065 434.211 327.126 433.788 327.261 433.392C327.423 432.918 327.688 432.494 328.032 432.157C328.376 431.82 328.79 431.579 329.237 431.456L334.084 430.126L341.693 415.435L349.986 414.283L350.195 414.659C351.799 417.495 352.832 420.675 353.227 423.985C353.623 427.295 353.37 430.659 352.487 433.854C351.797 436.279 350.858 438.2 349.724 438.768Z" fill="#2F2E41"/>
<path d="M357.412 187.335C350.751 188.352 346.139 192.357 344.261 200.346L332.017 175.528C331.291 173.951 331.107 172.139 331.499 170.425C331.891 168.711 332.832 167.209 334.15 166.195C335.55 165.119 337.271 164.671 338.961 164.942C340.652 165.214 342.183 166.185 343.243 167.656L357.412 187.335Z" fill="#E71818"/>
<path d="M370.242 344.86C340.472 359.32 310.006 361.1 278.93 351.773C290.278 303.454 303.677 259.763 303.595 223.873L334.032 220.993L338.719 229.149C349.838 248.501 357.513 269.993 361.337 292.485L370.242 344.86Z" fill="#2F2E41"/>
<path d="M320.388 149.553C329.083 149.553 336.132 141.815 336.132 132.269C336.132 122.724 329.083 114.986 320.388 114.986C311.693 114.986 304.645 122.724 304.645 132.269C304.645 141.815 311.693 149.553 320.388 149.553Z" fill="#A0616A"/>
<path d="M337.705 162.804L318.289 163.956L315.14 144.944L330.883 142.064L337.705 162.804Z" fill="#A0616A"/>
<path d="M335.607 223.873L314.335 224.531L303.595 226.178C298.323 207.06 293.885 187.987 304.645 172.022L317.239 158.195L336.132 157.619L336.382 157.776C339.382 159.663 341.707 162.616 342.975 166.148C344.242 169.68 344.375 173.581 343.352 177.207C338.664 193.932 335.653 209.726 335.607 223.873Z" fill="#E71818"/>
<path d="M303.07 277.453L301.751 297.251C301.68 298.311 301.263 299.308 300.576 300.057C299.889 300.807 298.978 301.258 298.012 301.329C297.455 301.37 296.896 301.283 296.372 301.073C295.847 300.864 295.368 300.537 294.965 300.113C294.562 299.689 294.244 299.178 294.031 298.612C293.819 298.045 293.715 297.437 293.729 296.824L294.149 277.453L307.268 222.721L307.793 189.306L322.487 188.73L321.438 227.33L303.07 277.453Z" fill="#A0616A"/>
<path d="M324.061 191.61C317.831 188.829 312.013 189.761 306.743 195.643L307.465 167.43C307.556 165.666 308.223 163.996 309.344 162.728C310.465 161.46 311.965 160.677 313.568 160.524C315.27 160.362 316.965 160.92 318.304 162.084C319.643 163.249 320.526 164.931 320.772 166.787L324.061 191.61Z" fill="#E71818"/>
<path d="M353.712 209.182H305.432C316.694 176.44 320.326 145.98 305.432 119.883C305.687 112.044 314.845 105.249 321.957 106C330.356 106.886 341.643 113.662 343.216 122.763L353.712 209.182Z" fill="#2F2E41"/>
<path d="M199.845 104.56H197.642V38.3316C197.642 33.2978 196.739 28.3133 194.985 23.6627C193.23 19.0121 190.658 14.7864 187.416 11.227C184.174 7.66762 180.325 4.84414 176.088 2.91781C171.852 0.991477 167.312 1.54327e-05 162.727 3.05178e-05H34.9157C30.3305 1.94025e-05 25.7902 0.991488 21.5541 2.91782C17.3179 4.84416 13.4688 7.66763 10.2266 11.227C6.98435 14.7865 4.41247 19.0121 2.65779 23.6627C0.903114 28.3133 -5.06236e-06 33.2978 0 38.3316V401.668C-3.61597e-06 406.702 0.903113 411.687 2.65779 416.337C4.41247 420.988 6.98435 425.214 10.2266 428.773C13.4688 432.332 17.3179 435.156 21.5541 437.082C25.7902 439.009 30.3305 440 34.9157 440H162.727C167.312 440 171.852 439.009 176.088 437.082C180.325 435.156 184.174 432.332 187.416 428.773C190.658 425.214 193.23 420.988 194.985 416.337C196.739 411.687 197.642 406.702 197.642 401.668V151.703H199.845V104.56Z" fill="#3F3D56"/>
<path d="M164.136 9.97256H147.452C148.22 12.0376 148.512 14.2781 148.305 16.4966C148.098 18.7152 147.397 20.8438 146.264 22.6948C145.131 24.5458 143.6 26.0625 141.807 27.1113C140.014 28.16 138.014 28.7087 135.983 28.7088H62.7615C60.73 28.7087 58.7298 28.16 56.937 27.1113C55.1441 26.0625 53.6137 24.5458 52.4806 22.6948C51.3475 20.8438 50.6464 18.7152 50.4391 16.4966C50.2318 14.2781 50.5247 12.0376 51.2919 9.97256H35.7094C32.2853 9.97256 28.8946 10.713 25.7311 12.1515C22.5676 13.5901 19.6931 15.6986 17.2719 18.3568C14.8506 21.0149 12.93 24.1705 11.6196 27.6435C10.3092 31.1165 9.63477 34.8389 9.63477 38.5981V401.402C9.63477 405.161 10.3092 408.883 11.6196 412.356C12.93 415.829 14.8506 418.985 17.2719 421.643C19.6931 424.301 22.5676 426.41 25.7311 427.848C28.8946 429.287 32.2853 430.027 35.7094 430.027H164.136C167.56 430.027 170.951 429.287 174.114 427.848C177.278 426.41 180.152 424.301 182.574 421.643C184.995 418.985 186.915 415.829 188.226 412.356C189.536 408.883 190.211 405.161 190.211 401.402V38.598C190.211 31.0061 187.463 23.7251 182.573 18.3568C177.684 12.9884 171.051 9.97255 164.136 9.97256Z" fill="white"/>
<path d="M167.659 66.6451H32.1855V194.211H167.659V66.6451Z" fill="#E6E6E6"/>
<path d="M72.3873 220.813C77.8619 220.813 82.3 215.941 82.3 209.931C82.3 203.92 77.8619 199.048 72.3873 199.048C66.9127 199.048 62.4746 203.92 62.4746 209.931C62.4746 215.941 66.9127 220.813 72.3873 220.813Z" fill="#E71818"/>
<path d="M77.3433 209.024H73.2131V204.49H71.5609V209.024H67.4307V210.838H71.5609V215.372H73.2131V210.838H77.3433V209.024Z" fill="white"/>
<path d="M124.704 220.813C130.178 220.813 134.616 215.941 134.616 209.931C134.616 203.92 130.178 199.048 124.704 199.048C119.229 199.048 114.791 203.92 114.791 209.931C114.791 215.941 119.229 220.813 124.704 220.813Z" fill="#E71818"/>
<path d="M129.66 210.837V209.024H119.747V210.837H129.66Z" fill="white"/>
<path d="M104.975 82.5545H94.269C93.8925 82.5545 93.5315 82.7187 93.2653 83.0109C92.9992 83.3031 92.8496 83.6995 92.8496 84.1127V89.2715C92.8496 89.6848 92.9992 90.0812 93.2653 90.3734C93.5315 90.6656 93.8925 90.8298 94.269 90.8298H96.0431V98.5594H103.201V90.8298H104.975C105.351 90.8298 105.712 90.6656 105.978 90.3734C106.245 90.0812 106.394 89.6848 106.394 89.2715V84.1127C106.394 83.6995 106.245 83.3031 105.978 83.0109C105.712 82.7187 105.351 82.5545 104.975 82.5545Z" fill="#E71818"/>
<path d="M115.698 129.768C109.141 119.235 105.789 106.695 106.122 93.9428C106.128 93.6485 106.041 93.3611 105.876 93.1293C105.711 92.8975 105.478 92.7356 105.216 92.671V90.442H93.9094V92.6401H93.7536C93.6012 92.6403 93.4504 92.6735 93.3097 92.7377C93.169 92.8019 93.0412 92.8959 92.9336 93.0143C92.826 93.1327 92.7408 93.2733 92.6826 93.4279C92.6245 93.5825 92.5947 93.7481 92.5949 93.9154C92.5949 93.9464 92.596 93.9773 92.5981 94.0081C93.4888 107.64 90.481 119.865 83.5744 130.682C83.177 131.304 82.9739 132.05 82.9957 132.809L84.2321 174.794C84.2618 175.731 84.6198 176.618 85.2314 177.272C85.843 177.926 86.6609 178.295 87.5144 178.302H113.089C113.952 178.294 114.778 177.917 115.392 177.25C116.005 176.583 116.357 175.68 116.373 174.732L116.849 133.969C116.863 132.472 116.462 131.007 115.698 129.768Z" fill="#3F3D56"/>
<path opacity="0.2" d="M102.743 84.2355C102.743 85.1271 102.42 85.9822 101.846 86.6126C101.271 87.2431 100.493 87.5973 99.6804 87.5973C98.8683 87.5973 98.0894 87.2431 97.5151 86.6126C96.9408 85.9822 96.6182 85.1271 96.6182 84.2355" fill="black"/>
<path d="M111.649 143.714H108.552C108.257 141.608 107.284 139.687 105.811 138.3C104.337 136.912 102.46 136.15 100.519 136.15C98.578 136.15 96.701 136.912 95.2275 138.3C93.7541 139.687 92.7816 141.608 92.486 143.714H89.3889C89.0594 143.714 88.7338 143.792 88.4344 143.943C88.135 144.094 87.8689 144.315 87.6544 144.589C87.4398 144.864 87.2819 145.186 87.1914 145.534C87.1009 145.882 87.08 146.247 87.1301 146.604L90.4939 170.609H109.81L113.896 146.685C113.957 146.323 113.946 145.95 113.861 145.593C113.777 145.236 113.622 144.904 113.408 144.621C113.193 144.337 112.925 144.109 112.621 143.952C112.317 143.795 111.985 143.714 111.649 143.714Z" fill="#E71818"/>
<path d="M167.659 246.205H32.1855V373.772H167.659V246.205Z" fill="#E6E6E6"/>
<path d="M72.3873 400.373C77.8619 400.373 82.3 395.501 82.3 389.491C82.3 383.481 77.8619 378.608 72.3873 378.608C66.9127 378.608 62.4746 383.481 62.4746 389.491C62.4746 395.501 66.9127 400.373 72.3873 400.373Z" fill="#E71818"/>
<path d="M77.3433 388.584H73.2131V384.05H71.5609V388.584H67.4307V390.398H71.5609V394.932H73.2131V390.398H77.3433V388.584Z" fill="white"/>
<path d="M124.704 400.373C130.178 400.373 134.616 395.501 134.616 389.491C134.616 383.481 130.178 378.608 124.704 378.608C119.229 378.608 114.791 383.481 114.791 389.491C114.791 395.501 119.229 400.373 124.704 400.373Z" fill="#E71818"/>
<path d="M129.66 390.398V388.584H119.747V390.398H129.66Z" fill="white"/>
<path d="M126.592 336.83L126.666 336.831C129.217 336.854 131.715 336.033 133.834 334.475C135.954 332.916 137.596 330.693 138.547 328.094C141.543 319.776 142.245 310.673 140.564 301.92C138.884 293.167 134.895 285.151 129.094 278.868C123.294 272.586 115.938 268.315 107.943 266.588C99.9483 264.861 91.6672 265.754 84.1312 269.156C76.5952 272.558 70.1372 278.318 65.5612 285.72C60.9853 293.121 58.4936 301.837 58.3965 310.782C58.2994 319.727 60.6011 328.505 65.015 336.024C69.4289 343.544 75.76 349.471 83.22 353.07C85.5386 354.197 88.1133 354.528 90.6065 354.02C93.0997 353.513 95.3949 352.19 97.1913 350.225C101.044 345.973 105.626 342.6 110.672 340.301C115.718 338.002 121.128 336.823 126.592 336.83Z" fill="white"/>
<path d="M105.256 323.028C112.831 323.028 118.972 316.286 118.972 307.97C118.972 299.654 112.831 292.912 105.256 292.912C97.6808 292.912 91.54 299.654 91.54 307.97C91.54 316.286 97.6808 323.028 105.256 323.028Z" fill="#F9A825"/>
</g>
<defs>
<clipPath id="clip0_560_60">
<rect width="424" height="440" fill="white"/>
</clipPath>
</defs>
</svg>
