<svg width="623" height="407" viewBox="0 0 623 407" fill="none" xmlns="http://www.w3.org/2000/svg">
<g clip-path="url(#clip0_536_100)">
<path d="M523.667 407C578.527 407 623 403.765 623 399.775C623 395.785 578.527 392.55 523.667 392.55C468.806 392.55 424.333 395.785 424.333 399.775C424.333 403.765 468.806 407 523.667 407Z" fill="#E6E6E6"/>
<path d="M101.177 112.095C101.209 104.742 94.7248 98.7271 87.1136 98.7271H16.4868C8.99596 98.7271 2.52388 104.642 2.43618 111.879C2.409 113.936 2.87663 115.971 3.8022 117.823C4.72778 119.675 6.086 121.295 7.76983 122.554C8.20145 122.864 8.54111 123.279 8.75486 123.756C8.96861 124.234 9.04897 124.757 8.98789 125.273C8.90596 125.86 8.86488 126.451 8.86493 127.043V174.24C8.86493 175.978 9.21912 177.698 9.90726 179.303C10.5954 180.908 11.604 182.367 12.8755 183.595C14.147 184.823 15.6565 185.798 17.3179 186.463C18.9792 187.128 20.7598 187.47 22.5579 187.47H80.5954C84.227 187.47 87.7099 186.076 90.2778 183.595C92.8457 181.114 94.2884 177.749 94.2884 174.241V127.043C94.2885 126.525 94.2572 126.007 94.1949 125.493C94.1396 124.984 94.2264 124.47 94.4461 124.004C94.6658 123.538 95.0105 123.137 95.4445 122.844C97.2117 121.618 98.6527 120.004 99.6493 118.136C100.646 116.267 101.17 114.197 101.177 112.095Z" fill="#3F3D56"/>
<path d="M98.1188 110.8C97.7666 108.24 96.4576 105.893 94.4384 104.2C92.4193 102.508 89.8292 101.587 87.1561 101.611H16.4659C13.9669 101.589 11.5351 102.392 9.57197 103.886C7.60886 105.38 6.2319 107.476 5.66853 109.829C5.18616 111.991 5.42656 114.245 6.35509 116.266C7.28362 118.288 8.85234 119.972 10.8353 121.077C11.4077 121.393 11.8551 121.884 12.107 122.473C12.3589 123.062 12.4011 123.715 12.2269 124.329C11.976 125.214 11.8494 126.127 11.8503 127.045V174.238C11.8506 176.65 12.7226 178.986 14.3158 180.843C15.909 182.7 18.1233 183.961 20.5763 184.408C21.2306 184.526 21.8948 184.585 22.5603 184.586H80.5978C81.5776 184.587 82.5529 184.457 83.4958 184.2C85.7425 183.589 87.7211 182.285 89.1305 180.488C90.5399 178.691 91.3029 176.498 91.3033 174.243V127.04C91.3034 126.181 91.1924 125.326 90.9726 124.493C90.9127 124.263 90.8819 124.026 90.8808 123.788C90.8812 123.266 91.0284 122.754 91.3067 122.307C91.585 121.86 91.9839 121.495 92.4606 121.25L92.4652 121.245C94.3886 120.259 95.9579 118.733 96.967 116.869C97.9761 115.005 98.3776 112.889 98.1188 110.8Z" fill="#C91919"/>
<path opacity="0.2" d="M91.3034 131.562V127.125H83.4958V101.611H78.9032V127.125H54.3325V101.611H49.7398V127.125H25.1691V101.611H20.5764V127.125H11.8503V131.562H20.5764V144.873H11.8503V149.31H20.5764V162.622H11.8503V167.059H20.5764V184.408C21.2307 184.526 21.8948 184.585 22.5604 184.586H25.169V167.059H49.7398V184.586H54.3324V167.059H78.9032V184.586H80.5979C81.5777 184.587 82.553 184.457 83.4958 184.2V167.059H91.3033V162.622H83.4958V149.31H91.3034V144.873H83.4958V131.562H91.3034ZM25.1691 131.562H49.7398V144.873H25.1691V131.562ZM25.1691 162.622V149.31H49.7398V162.622H25.1691ZM78.9032 162.622H54.3325V149.31H78.9032V162.622ZM78.9032 144.873H54.3325V131.562H78.9032V144.873Z" fill="black"/>
<path d="M100.856 0C100.856 6.22311 99.587 12.3853 97.1221 18.1347C94.6571 23.8841 91.0442 29.1081 86.4895 33.5085C81.9349 37.9089 76.5278 41.3995 70.5768 43.781C64.6259 46.1625 58.2477 47.3882 51.8065 47.3882C45.3653 47.3882 38.9871 46.1625 33.0362 43.781C27.0853 41.3995 21.6781 37.9089 17.1235 33.5085C12.5689 29.1081 8.95593 23.8841 6.49097 18.1347C4.02602 12.3853 2.75732 6.22311 2.75732 0H100.856Z" fill="#C91919"/>
<path d="M20.7516 8.41213C20.7516 9.65103 20.2968 10.6554 19.7358 10.6554C19.1748 10.6554 18.72 9.65103 18.72 8.41213C18.7816 7.5738 19.1404 6.7816 19.7358 6.16888C20.3312 6.7816 20.6899 7.5738 20.7516 8.41213Z" fill="#3F3D56"/>
<path d="M72.1227 16.2634C72.1227 17.5023 71.6679 18.5067 71.1069 18.5067C70.5459 18.5067 70.0911 17.5023 70.0911 16.2634C70.1527 15.4251 70.5115 14.6329 71.1069 14.0202C71.7023 14.6329 72.061 15.4251 72.1227 16.2634Z" fill="#3F3D56"/>
<path d="M34.3925 11.777C34.3925 13.0159 33.9377 14.0202 33.3767 14.0202C32.8157 14.0202 32.3608 13.0159 32.3608 11.777C32.4225 10.9386 32.7813 10.1464 33.3767 9.53372C33.9721 10.1464 34.3308 10.9386 34.3925 11.777Z" fill="#3F3D56"/>
<path d="M54.7086 29.4424C54.7086 30.6813 54.2538 31.6856 53.6928 31.6856C53.1318 31.6856 52.677 30.6813 52.677 29.4424C52.7387 28.6041 53.0974 27.8119 53.6928 27.1992C54.2882 27.8119 54.647 28.6041 54.7086 29.4424Z" fill="#3F3D56"/>
<path d="M32.9413 27.1992C32.9413 28.4381 32.4865 29.4424 31.9255 29.4424C31.3645 29.4424 30.9097 28.4381 30.9097 27.1992C30.9713 26.3608 31.3301 25.5686 31.9255 24.9559C32.5209 25.5686 32.8796 26.3608 32.9413 27.1992Z" fill="#3F3D56"/>
<path d="M83.7318 6.16889C83.7318 7.4078 83.277 8.41213 82.716 8.41213C82.155 8.41213 81.7002 7.4078 81.7002 6.16889C81.7619 5.33057 82.1206 4.53837 82.716 3.92566C83.3114 4.53837 83.6702 5.33057 83.7318 6.16889Z" fill="#3F3D56"/>
<path d="M65.1571 33.9288C65.1571 35.1677 64.7023 36.1721 64.1413 36.1721C63.5803 36.1721 63.1255 35.1677 63.1255 33.9288C63.1872 33.0905 63.5459 32.2983 64.1413 31.6856C64.7367 32.2983 65.0954 33.0905 65.1571 33.9288Z" fill="#3F3D56"/>
<path d="M51.8064 50.0521C38.0713 50.0371 24.9031 44.7589 15.1909 35.3756C5.4787 25.9922 0.0155469 13.27 0 0H5.51437C5.51437 5.87329 6.71175 11.6891 9.03814 17.1153C11.3645 22.5415 14.7744 27.4719 19.073 31.6249C23.3716 35.778 28.4748 39.0723 34.0912 41.32C39.7076 43.5676 45.7272 44.7244 51.8064 44.7244C57.8855 44.7244 63.9052 43.5676 69.5216 41.32C75.138 39.0723 80.2412 35.778 84.5398 31.6249C88.8384 27.4719 92.2482 22.5415 94.5746 17.1153C96.901 11.6891 98.0984 5.87329 98.0984 0H103.613C103.597 13.27 98.134 25.9922 88.4218 35.3755C78.7096 44.7589 65.5415 50.037 51.8064 50.0521Z" fill="#3F3D56"/>
<path d="M171.137 17.1832H154.901V32.8689H171.137V17.1832Z" fill="#3F3D56"/>
<path d="M330.244 24.2418H199.549V25.8103H330.244V24.2418Z" fill="#3F3D56"/>
<path d="M171.137 135.256H154.901V150.941H171.137V135.256Z" fill="#3F3D56"/>
<path d="M330.244 142.314H199.549V143.883H330.244V142.314Z" fill="#3F3D56"/>
<path d="M171.137 252.507H154.901V268.193H171.137V252.507Z" fill="#3F3D56"/>
<path d="M330.244 259.566H199.549V261.134H330.244V259.566Z" fill="#3F3D56"/>
<path d="M513.303 107.717L492.564 123.51L448.618 108.588C448.618 108.588 433.677 92.3512 425.227 104.445C422.334 108.587 441.287 116.239 443.075 116.95C447.546 118.728 490.368 141.425 494.564 138.447C498.76 135.47 522.37 120.408 522.37 120.408L513.303 107.717Z" fill="#A0616A"/>
<path d="M584.098 80.7756C564.442 73.6795 545.744 70.3222 530.584 80.7756V47.0381C530.584 43.6433 531.276 40.2818 532.621 37.1454C533.966 34.0091 535.937 31.1593 538.421 28.7588C540.906 26.3584 543.855 24.4542 547.102 23.1551C550.348 21.856 553.827 21.1873 557.341 21.1873C560.855 21.1873 564.334 21.856 567.581 23.1551C570.827 24.4542 573.776 26.3584 576.261 28.7588C578.746 31.1593 580.717 34.0091 582.061 37.1454C583.406 40.2818 584.098 43.6433 584.098 47.0381L584.098 80.7756Z" fill="#2F2E41"/>
<path d="M534.709 154.476L533.102 165.338C533.102 165.338 529.087 176.976 533.102 198.701L468.455 369.007L516.238 382.198L539.929 289.091L573.256 218.098L570.044 298.79L553.179 384.913L602.97 382.973L617.479 235.298C619.825 211.959 615.635 188.441 605.347 167.203C601.322 158.944 596.995 152.436 593.068 151.491C581.287 148.657 534.709 154.476 534.709 154.476Z" fill="#2F2E41"/>
<path d="M474.478 367.844L458.015 384.913C458.015 384.913 426.293 400.819 448.779 402.758C471.266 404.698 478.895 396.163 478.895 396.163C478.895 396.163 507.003 394.224 506.601 390.344C506.2 386.465 504.192 373.663 504.192 373.663L474.478 367.844Z" fill="#2F2E41"/>
<path d="M563.82 371.959V383.986C563.82 383.986 564.222 389.029 563.82 390.193C563.419 391.357 557.396 405.71 577.473 402.607C597.55 399.503 589.519 387.477 589.519 387.477L584.7 370.02L563.82 371.959Z" fill="#2F2E41"/>
<path d="M557.095 70.6802C568.238 70.6802 577.272 61.9524 577.272 51.1861C577.272 40.4198 568.238 31.692 557.095 31.692C545.951 31.692 536.917 40.4198 536.917 51.1861C536.917 61.9524 545.951 70.6802 557.095 70.6802Z" fill="#A0616A"/>
<path d="M571.048 61.9515C571.048 61.9515 568.237 87.5557 571.048 92.211C573.859 96.8663 542.539 87.5557 542.539 87.5557C542.539 87.5557 549.365 70.0983 546.956 63.1153C544.546 56.1324 571.048 61.9515 571.048 61.9515Z" fill="#A0616A"/>
<path d="M587.11 135.66L593.534 152.73L533.705 159.325C533.705 159.325 527.28 158.161 527.28 153.118C527.28 148.075 520.454 130.229 520.454 130.229C520.454 130.229 503.736 117.138 495.705 113.646C492.794 112.382 497.149 112.904 499.598 107.535C500.333 105.921 501.212 104.218 502.172 102.491C502.955 101.075 503.798 99.6401 504.662 98.2241C505.71 96.4977 506.79 94.7985 507.838 93.1808C511.01 88.2889 513.905 84.1767 514.833 82.5124C517.643 77.4692 544.069 77.0192 544.069 77.0192C551.626 81.6124 573.457 82.5124 573.457 82.5124C573.457 82.5124 588.475 88.5837 594.731 93.1808C595.185 93.5106 587.11 135.66 587.11 135.66Z" fill="#E6E6E6"/>
<path d="M574.121 27.7842V27.3213L573.551 27.3519C570.316 24.9719 566.563 23.3349 562.575 22.5651C558.588 21.7953 554.472 21.9129 550.538 22.9091C554.309 23.8717 557.815 25.6218 560.809 28.0358L541.468 29.0739L533.305 46.5999H538.83L543.282 38.7132V46.5999H561.967L563.237 40.4658L566.764 46.5999H570.435C570.458 47.0372 570.493 47.4715 570.493 47.9143L566.865 81.6518L584.098 74.6414V47.9143C584.101 44.0513 583.206 40.237 581.479 36.7528C579.752 33.2687 577.238 30.2038 574.121 27.7842Z" fill="#2F2E41"/>
<path d="M601.163 117.039L599.959 147.687L596.746 207.042C596.746 207.042 601.163 232.646 589.92 232.258C578.677 231.87 587.11 201.999 587.11 201.999L583.897 155.058L587.11 122.083L601.163 117.039Z" fill="#A0616A"/>
<path d="M604.376 133.721C604.376 137.212 584.098 136.242 584.098 136.242L573.457 82.5125C573.457 82.5125 588.475 88.5837 594.731 93.1809C596.203 94.6564 597.407 96.3614 598.293 98.2241C598.77 99.4694 599.224 100.913 599.654 102.491C600.079 104.059 600.477 105.762 600.85 107.535C602.603 116.182 603.78 124.928 604.376 133.721Z" fill="#E6E6E6"/>
<path d="M51.2602 258.361L20.5248 255.287C20.761 253.71 20.5797 252.101 19.9978 250.61C19.4159 249.12 18.4524 247.796 17.1974 246.762C15.9424 245.729 14.4367 245.019 12.821 244.7C11.2053 244.382 9.53228 244.464 7.95824 244.939C6.3842 245.414 4.96047 246.267 3.82004 247.417C2.67961 248.568 1.85968 249.979 1.43682 251.519C1.01397 253.059 1.002 254.678 1.40202 256.223C1.80203 257.769 2.60099 259.192 3.72427 260.358C2.583 261.549 1.77914 263.004 1.39045 264.583C1.00176 266.162 1.04138 267.811 1.5055 269.371C1.96961 270.931 2.8425 272.349 4.03974 273.487C5.23699 274.626 6.71808 275.446 8.33974 275.87C9.9614 276.293 11.6688 276.306 13.2967 275.905C14.9246 275.505 16.418 274.705 17.6324 273.584C18.8468 272.462 19.7411 271.057 20.2289 269.504C20.7167 267.951 20.7813 266.302 20.4167 264.718L51.2602 261.979V258.361Z" fill="#CCCCCC"/>
<path d="M82.5148 278.77C94.5975 281.641 106.769 273.361 107.399 261.355C107.417 261.022 107.426 260.687 107.426 260.35C107.426 260.013 107.417 259.678 107.399 259.345C106.769 247.339 94.5975 239.059 82.5148 241.93L41.5248 251.668C40.344 251.667 39.1745 251.89 38.0832 252.326C36.9919 252.762 36.0003 253.401 35.1649 254.208C34.3295 255.014 33.6668 255.972 33.2147 257.025C32.7625 258.079 32.5298 259.209 32.5298 260.35C32.5298 261.491 32.7625 262.62 33.2147 263.674C33.6668 264.728 34.3295 265.686 35.1649 266.492C36.0003 267.298 36.9919 267.938 38.0832 268.374C39.1745 268.809 40.344 269.033 41.5248 269.032L82.5148 278.77Z" fill="#C91919"/>
</g>
<defs>
<clipPath id="clip0_536_100">
<rect width="623" height="407" fill="white"/>
</clipPath>
</defs>
</svg>
